<?xml version="1.0" encoding="UTF-8" standalone="no"?>
<!DOCTYPE svg PUBLIC "-//W3C//DTD SVG 1.1//EN"
 "http://www.w3.org/Graphics/SVG/1.1/DTD/svg11.dtd">
<!-- Generated by graphviz version 2.43.0 (0)
 -->
<!-- Title: G Pages: 1 -->
<svg width="1323pt" height="520pt"
 viewBox="0.00 0.00 1322.78 520.34" xmlns="http://www.w3.org/2000/svg" xmlns:xlink="http://www.w3.org/1999/xlink">
<g id="graph0" class="graph" transform="scale(1 1) rotate(0) translate(4 516.34)">
<title>G</title><style>.edge>path:hover{stroke-width:8}</style>
<polygon fill="white" stroke="transparent" points="-4,4 -4,-516.34 1318.78,-516.34 1318.78,4 -4,4"/>
<!-- api_server_communication_wrappers_http -->
<g id="node1" class="node">
<title>api_server_communication_wrappers_http</title><style>.edge>path:hover{stroke-width:8}</style>
<ellipse fill="#b34c4c" stroke="black" cx="60.81" cy="-146.31" rx="60.62" ry="36.54"/>
<text text-anchor="middle" x="60.81" y="-160.31" font-family="Helvetica,sans-Serif" font-size="10.00" fill="#ffffff">api_server.</text>
<text text-anchor="middle" x="60.81" y="-149.31" font-family="Helvetica,sans-Serif" font-size="10.00" fill="#ffffff">communication.</text>
<text text-anchor="middle" x="60.81" y="-138.31" font-family="Helvetica,sans-Serif" font-size="10.00" fill="#ffffff">wrappers.</text>
<text text-anchor="middle" x="60.81" y="-127.31" font-family="Helvetica,sans-Serif" font-size="10.00" fill="#ffffff">http</text>
</g>
<!-- api_server_core_exception_handler -->
<g id="node2" class="node">
<title>api_server_core_exception_handler</title><style>.edge>path:hover{stroke-width:8}</style>
<ellipse fill="#ac4949" stroke="black" cx="244.81" cy="-146.31" rx="67.35" ry="28.98"/>
<text text-anchor="middle" x="244.81" y="-154.81" font-family="Helvetica,sans-Serif" font-size="10.00" fill="#ffffff">api_server.</text>
<text text-anchor="middle" x="244.81" y="-143.81" font-family="Helvetica,sans-Serif" font-size="10.00" fill="#ffffff">core.</text>
<text text-anchor="middle" x="244.81" y="-132.81" font-family="Helvetica,sans-Serif" font-size="10.00" fill="#ffffff">exception_handler</text>
</g>
<!-- api_server_features_auth_decoder -->
<g id="node3" class="node">
<title>api_server_features_auth_decoder</title><style>.edge>path:hover{stroke-width:8}</style>
<ellipse fill="#ac4949" stroke="black" cx="264.81" cy="-36.77" rx="45.01" ry="36.54"/>
<text text-anchor="middle" x="264.81" y="-50.77" font-family="Helvetica,sans-Serif" font-size="10.00" fill="#ffffff">api_server.</text>
<text text-anchor="middle" x="264.81" y="-39.77" font-family="Helvetica,sans-Serif" font-size="10.00" fill="#ffffff">features.</text>
<text text-anchor="middle" x="264.81" y="-28.77" font-family="Helvetica,sans-Serif" font-size="10.00" fill="#ffffff">auth.</text>
<text text-anchor="middle" x="264.81" y="-17.77" font-family="Helvetica,sans-Serif" font-size="10.00" fill="#ffffff">decoder</text>
</g>
<!-- api_server_routers_auth_router -->
<g id="node4" class="node">
<title>api_server_routers_auth_router</title><style>.edge>path:hover{stroke-width:8}</style>
<ellipse fill="#ac4949" stroke="black" cx="413.81" cy="-146.31" rx="45.92" ry="28.98"/>
<text text-anchor="middle" x="413.81" y="-154.81" font-family="Helvetica,sans-Serif" font-size="10.00" fill="#ffffff">api_server.</text>
<text text-anchor="middle" x="413.81" y="-143.81" font-family="Helvetica,sans-Serif" font-size="10.00" fill="#ffffff">routers.</text>
<text text-anchor="middle" x="413.81" y="-132.81" font-family="Helvetica,sans-Serif" font-size="10.00" fill="#ffffff">auth_router</text>
</g>
<!-- api_server_routers_business_router -->
<g id="node5" class="node">
<title>api_server_routers_business_router</title><style>.edge>path:hover{stroke-width:8}</style>
<ellipse fill="#ac4949" stroke="black" cx="939.81" cy="-146.31" rx="60.62" ry="28.98"/>
<text text-anchor="middle" x="939.81" y="-154.81" font-family="Helvetica,sans-Serif" font-size="10.00" fill="#ffffff">api_server.</text>
<text text-anchor="middle" x="939.81" y="-143.81" font-family="Helvetica,sans-Serif" font-size="10.00" fill="#ffffff">routers.</text>
<text text-anchor="middle" x="939.81" y="-132.81" font-family="Helvetica,sans-Serif" font-size="10.00" fill="#ffffff">business_router</text>
</g>
<!-- api_server_routers_health_router -->
<g id="node6" class="node">
<title>api_server_routers_health_router</title><style>.edge>path:hover{stroke-width:8}</style>
<ellipse fill="#ac4949" stroke="black" cx="1108.81" cy="-146.31" rx="51.74" ry="28.98"/>
<text text-anchor="middle" x="1108.81" y="-154.81" font-family="Helvetica,sans-Serif" font-size="10.00" fill="#ffffff">api_server.</text>
<text text-anchor="middle" x="1108.81" y="-143.81" font-family="Helvetica,sans-Serif" font-size="10.00" fill="#ffffff">routers.</text>
<text text-anchor="middle" x="1108.81" y="-132.81" font-family="Helvetica,sans-Serif" font-size="10.00" fill="#ffffff">health_router</text>
</g>
<!-- api_server_routers_product_router -->
<g id="node7" class="node">
<title>api_server_routers_product_router</title><style>.edge>path:hover{stroke-width:8}</style>
<ellipse fill="#9d4343" stroke="black" cx="1233.81" cy="-146.31" rx="55.72" ry="28.98"/>
<text text-anchor="middle" x="1233.81" y="-154.81" font-family="Helvetica,sans-Serif" font-size="10.00" fill="#ffffff">api_server.</text>
<text text-anchor="middle" x="1233.81" y="-143.81" font-family="Helvetica,sans-Serif" font-size="10.00" fill="#ffffff">routers.</text>
<text text-anchor="middle" x="1233.81" y="-132.81" font-family="Helvetica,sans-Serif" font-size="10.00" fill="#ffffff">product_router</text>
</g>
<!-- api_server_routers_recipe_router -->
<g id="node8" class="node">
<title>api_server_routers_recipe_router</title><style>.edge>path:hover{stroke-width:8}</style>
<ellipse fill="#b34c4c" stroke="black" cx="567.81" cy="-146.31" rx="51.74" ry="28.98"/>
<text text-anchor="middle" x="567.81" y="-154.81" font-family="Helvetica,sans-Serif" font-size="10.00" fill="#ffffff">api_server.</text>
<text text-anchor="middle" x="567.81" y="-143.81" font-family="Helvetica,sans-Serif" font-size="10.00" fill="#ffffff">routers.</text>
<text text-anchor="middle" x="567.81" y="-132.81" font-family="Helvetica,sans-Serif" font-size="10.00" fill="#ffffff">recipe_router</text>
</g>
<!-- api_server_routers_supplier_router -->
<g id="node9" class="node">
<title>api_server_routers_supplier_router</title><style>.edge>path:hover{stroke-width:8}</style>
<ellipse fill="#b34c4c" stroke="black" cx="693.81" cy="-146.31" rx="56.64" ry="28.98"/>
<text text-anchor="middle" x="693.81" y="-154.81" font-family="Helvetica,sans-Serif" font-size="10.00" fill="#ffffff">api_server.</text>
<text text-anchor="middle" x="693.81" y="-143.81" font-family="Helvetica,sans-Serif" font-size="10.00" fill="#ffffff">routers.</text>
<text text-anchor="middle" x="693.81" y="-132.81" font-family="Helvetica,sans-Serif" font-size="10.00" fill="#ffffff">supplier_router</text>
</g>
<!-- api_server_routers_user_router -->
<g id="node10" class="node">
<title>api_server_routers_user_router</title><style>.edge>path:hover{stroke-width:8}</style>
<ellipse fill="#b34c4c" stroke="black" cx="814.81" cy="-146.31" rx="45.92" ry="28.98"/>
<text text-anchor="middle" x="814.81" y="-154.81" font-family="Helvetica,sans-Serif" font-size="10.00" fill="#ffffff">api_server.</text>
<text text-anchor="middle" x="814.81" y="-143.81" font-family="Helvetica,sans-Serif" font-size="10.00" fill="#ffffff">routers.</text>
<text text-anchor="middle" x="814.81" y="-132.81" font-family="Helvetica,sans-Serif" font-size="10.00" fill="#ffffff">user_router</text>
</g>
<!-- api_server_server -->
<g id="node11" class="node">
<title>api_server_server</title><style>.edge>path:hover{stroke-width:8}</style>
<ellipse fill="#a83838" stroke="black" cx="328.81" cy="-240.29" rx="45.01" ry="21.43"/>
<text text-anchor="middle" x="328.81" y="-243.29" font-family="Helvetica,sans-Serif" font-size="10.00" fill="#ffffff">api_server.</text>
<text text-anchor="middle" x="328.81" y="-232.29" font-family="Helvetica,sans-Serif" font-size="10.00" fill="#ffffff">server</text>
</g>
<!-- api_server_tests_conftest -->
<g id="node12" class="node">
<title>api_server_tests_conftest</title><style>.edge>path:hover{stroke-width:8}</style>
<ellipse fill="#a44646" stroke="black" cx="487.81" cy="-36.77" rx="45.01" ry="28.98"/>
<text text-anchor="middle" x="487.81" y="-45.27" font-family="Helvetica,sans-Serif" font-size="10.00" fill="#ffffff">api_server.</text>
<text text-anchor="middle" x="487.81" y="-34.27" font-family="Helvetica,sans-Serif" font-size="10.00" fill="#ffffff">tests.</text>
<text text-anchor="middle" x="487.81" y="-23.27" font-family="Helvetica,sans-Serif" font-size="10.00" fill="#ffffff">conftest</text>
</g>
<!-- api_server_server&#45;&gt;api_server_tests_conftest -->
<g id="edge1" class="edge">
<title>api_server_server&#45;&gt;api_server_tests_conftest</title><style>.edge>path:hover{stroke-width:8}</style>
<path fill="none" stroke="black" d="M328.6,-218.72C329.34,-191.19 334.34,-142.05 358.81,-109.54 378.52,-83.34 410.75,-65.41 438.05,-54.02"/>
<polygon fill="#a83838" stroke="black" points="439.49,-57.21 447.48,-50.26 436.89,-50.71 439.49,-57.21"/>
</g>
<!-- fastapi -->
<g id="node13" class="node">
<title>fastapi</title><style>.edge>path:hover{stroke-width:8}</style>
<ellipse fill="#80f906" stroke="black" cx="619.81" cy="-397.14" rx="27.16" ry="18"/>
<text text-anchor="middle" x="619.81" y="-394.64" font-family="Helvetica,sans-Serif" font-size="10.00" fill="#000000">fastapi</text>
</g>
<!-- fastapi&#45;&gt;api_server_core_exception_handler -->
<g id="edge2" class="edge">
<title>fastapi&#45;&gt;api_server_core_exception_handler</title><style>.edge>path:hover{stroke-width:8}</style>
<path fill="none" stroke="black" d="M422.81,-317.72C386.78,-287.07 414.65,-254.07 382.81,-219.08 362.34,-196.57 333.15,-179.98 306.9,-168.45"/>
<polygon fill="#80f906" stroke="black" points="307.95,-165.09 297.38,-164.43 305.23,-171.54 307.95,-165.09"/>
</g>
<!-- fastapi&#45;&gt;api_server_features_auth_decoder -->
<g id="edge3" class="edge">
<title>fastapi&#45;&gt;api_server_features_auth_decoder</title><style>.edge>path:hover{stroke-width:8}</style>
<path fill="none" stroke="black" d="M693.81,-239.29C684.78,-152.98 573.89,-238.14 506.81,-183.08 492.9,-171.66 502.65,-157.51 487.81,-147.31"/>
<path fill="none" stroke="black" d="M487.81,-145.31C472.98,-135.11 482.46,-121.28 468.81,-109.54 426.3,-72.97 363.95,-54.64 319.38,-45.72"/>
<polygon fill="#80f906" stroke="black" points="319.79,-42.23 309.31,-43.8 318.48,-49.11 319.79,-42.23"/>
</g>
<!-- fastapi&#45;&gt;api_server_routers_auth_router -->
<g id="edge4" class="edge">
<title>fastapi&#45;&gt;api_server_routers_auth_router</title><style>.edge>path:hover{stroke-width:8}</style>
<path fill="none" stroke="black" d="M634.33,-381.63C658.99,-355.17 705.33,-296.72 693.81,-241.29"/>
<path fill="none" stroke="black" d="M693.81,-239.29C683.3,-138.92 567,-221.81 473.81,-183.08 467.04,-180.26 460.11,-176.78 453.49,-173.1"/>
<polygon fill="#80f906" stroke="black" points="455.09,-169.99 444.68,-168.01 451.59,-176.05 455.09,-169.99"/>
</g>
<!-- fastapi&#45;&gt;api_server_routers_business_router -->
<g id="edge5" class="edge">
<title>fastapi&#45;&gt;api_server_routers_business_router</title><style>.edge>path:hover{stroke-width:8}</style>
<path fill="none" stroke="black" d="M693.81,-239.29C685.26,-157.62 793.89,-214.36 869.81,-183.08 877,-180.12 884.45,-176.7 891.7,-173.19"/>
<polygon fill="#80f906" stroke="black" points="893.33,-176.28 900.73,-168.7 890.22,-170.01 893.33,-176.28"/>
</g>
<!-- fastapi&#45;&gt;api_server_routers_health_router -->
<g id="edge6" class="edge">
<title>fastapi&#45;&gt;api_server_routers_health_router</title><style>.edge>path:hover{stroke-width:8}</style>
<path fill="none" stroke="black" d="M646.7,-394.84C732.58,-390.36 999.26,-374 1077.81,-339.93 1140.52,-312.73 1204.5,-309.09 1195.81,-241.29"/>
<path fill="none" stroke="black" d="M1195.81,-239.29C1199.49,-224.06 1172.09,-197.26 1147.08,-176.51"/>
<polygon fill="#80f906" stroke="black" points="1149.05,-173.6 1139.09,-170.01 1144.64,-179.03 1149.05,-173.6"/>
</g>
<!-- fastapi&#45;&gt;api_server_routers_product_router -->
<g id="edge7" class="edge">
<title>fastapi&#45;&gt;api_server_routers_product_router</title><style>.edge>path:hover{stroke-width:8}</style>
<path fill="none" stroke="black" d="M1195.81,-239.29C1200.35,-220.48 1208.19,-200.52 1215.58,-184.02"/>
<polygon fill="#80f906" stroke="black" points="1218.85,-185.28 1219.85,-174.73 1212.49,-182.36 1218.85,-185.28"/>
</g>
<!-- fastapi&#45;&gt;api_server_routers_recipe_router -->
<g id="edge8" class="edge">
<title>fastapi&#45;&gt;api_server_routers_recipe_router</title><style>.edge>path:hover{stroke-width:8}</style>
<path fill="none" stroke="black" d="M693.81,-239.29C691.68,-229.02 646.01,-197.51 610.26,-174.22"/>
<polygon fill="#80f906" stroke="black" points="611.72,-170.99 601.42,-168.5 607.91,-176.87 611.72,-170.99"/>
</g>
<!-- fastapi&#45;&gt;api_server_routers_supplier_router -->
<g id="edge9" class="edge">
<title>fastapi&#45;&gt;api_server_routers_supplier_router</title><style>.edge>path:hover{stroke-width:8}</style>
<path fill="none" stroke="black" d="M693.81,-239.29C690.21,-221.98 689.73,-202.43 690.34,-185.82"/>
<polygon fill="#80f906" stroke="black" points="693.85,-185.55 690.87,-175.38 686.86,-185.19 693.85,-185.55"/>
</g>
<!-- fastapi&#45;&gt;api_server_routers_user_router -->
<g id="edge10" class="edge">
<title>fastapi&#45;&gt;api_server_routers_user_router</title><style>.edge>path:hover{stroke-width:8}</style>
<path fill="none" stroke="black" d="M693.81,-239.29C692.74,-234.12 740.37,-199.42 776.18,-174.16"/>
<polygon fill="#80f906" stroke="black" points="778.37,-176.9 784.53,-168.28 774.34,-171.17 778.37,-176.9"/>
</g>
<!-- fastapi&#45;&gt;api_server_server -->
<g id="edge11" class="edge">
<title>fastapi&#45;&gt;api_server_server</title><style>.edge>path:hover{stroke-width:8}</style>
<path fill="none" stroke="black" d="M593.7,-391.72C553.07,-383.69 474.09,-363.34 422.81,-319.72"/>
<path fill="none" stroke="black" d="M422.81,-317.72C401.74,-299.79 377.5,-280.11 358.92,-265.21"/>
<polygon fill="#80f906" stroke="black" points="361.07,-262.44 351.07,-258.93 356.69,-267.91 361.07,-262.44"/>
</g>
<!-- fastapi&#45;&gt;api_server_tests_conftest -->
<g id="edge12" class="edge">
<title>fastapi&#45;&gt;api_server_tests_conftest</title><style>.edge>path:hover{stroke-width:8}</style>
<path fill="none" stroke="black" d="M487.81,-145.31C466.31,-130.53 468.28,-99.84 474.51,-75.01"/>
<polygon fill="#80f906" stroke="black" points="477.95,-75.72 477.28,-65.14 471.21,-73.83 477.95,-75.72"/>
</g>
<!-- fastapi_encoders -->
<g id="node14" class="node">
<title>fastapi_encoders</title><style>.edge>path:hover{stroke-width:8}</style>
<ellipse fill="#80cc33" stroke="black" cx="1041.81" cy="-397.14" rx="39.7" ry="21.43"/>
<text text-anchor="middle" x="1041.81" y="-400.14" font-family="Helvetica,sans-Serif" font-size="10.00" fill="#000000">fastapi.</text>
<text text-anchor="middle" x="1041.81" y="-389.14" font-family="Helvetica,sans-Serif" font-size="10.00" fill="#000000">encoders</text>
</g>
<!-- fastapi_encoders&#45;&gt;api_server_routers_business_router -->
<g id="edge13" class="edge">
<title>fastapi_encoders&#45;&gt;api_server_routers_business_router</title><style>.edge>path:hover{stroke-width:8}</style>
<path fill="none" stroke="black" d="M1017.74,-380.15C1004.54,-370.13 989.04,-356.07 979.81,-339.93 952.04,-291.38 943.43,-226.13 940.83,-185.41"/>
<polygon fill="#80cc33" stroke="black" points="944.32,-185.15 940.28,-175.36 937.34,-185.54 944.32,-185.15"/>
</g>
<!-- fastapi_encoders&#45;&gt;api_server_routers_health_router -->
<g id="edge14" class="edge">
<title>fastapi_encoders&#45;&gt;api_server_routers_health_router</title><style>.edge>path:hover{stroke-width:8}</style>
<path fill="none" stroke="black" d="M1080.92,-393.64C1119.21,-389.06 1176.51,-376.16 1209.81,-339.93 1240.34,-306.71 1246.86,-284.48 1233.81,-241.29"/>
<path fill="none" stroke="black" d="M1233.81,-239.29C1231.43,-229.13 1186.18,-197.6 1150.8,-174.27"/>
<polygon fill="#80cc33" stroke="black" points="1152.34,-171.09 1142.05,-168.54 1148.5,-176.95 1152.34,-171.09"/>
</g>
<!-- fastapi_encoders&#45;&gt;api_server_routers_product_router -->
<g id="edge15" class="edge">
<title>fastapi_encoders&#45;&gt;api_server_routers_product_router</title><style>.edge>path:hover{stroke-width:8}</style>
<path fill="none" stroke="black" d="M1233.81,-239.29C1229.78,-222.07 1229.24,-202.54 1229.92,-185.91"/>
<polygon fill="#80cc33" stroke="black" points="1233.44,-185.65 1230.52,-175.46 1226.45,-185.25 1233.44,-185.65"/>
</g>
<!-- fastapi_middleware -->
<g id="node15" class="node">
<title>fastapi_middleware</title><style>.edge>path:hover{stroke-width:8}</style>
<ellipse fill="#85b653" stroke="black" cx="403.81" cy="-397.14" rx="46.84" ry="21.43"/>
<text text-anchor="middle" x="403.81" y="-400.14" font-family="Helvetica,sans-Serif" font-size="10.00" fill="#000000">fastapi.</text>
<text text-anchor="middle" x="403.81" y="-389.14" font-family="Helvetica,sans-Serif" font-size="10.00" fill="#000000">middleware</text>
</g>
<!-- fastapi_middleware&#45;&gt;api_server_server -->
<g id="edge16" class="edge">
<title>fastapi_middleware&#45;&gt;api_server_server</title><style>.edge>path:hover{stroke-width:8}</style>
<path fill="none" stroke="black" d="M394.16,-376.22C381.17,-349.39 357.95,-301.45 342.97,-270.53"/>
<polygon fill="#85b653" stroke="black" points="345.93,-268.62 338.43,-261.14 339.63,-271.67 345.93,-268.62"/>
</g>
<!-- fastapi_middleware_cors -->
<g id="node16" class="node">
<title>fastapi_middleware_cors</title><style>.edge>path:hover{stroke-width:8}</style>
<ellipse fill="#85b653" stroke="black" cx="290.81" cy="-483.35" rx="48.58" ry="28.98"/>
<text text-anchor="middle" x="290.81" y="-491.85" font-family="Helvetica,sans-Serif" font-size="10.00" fill="#000000">fastapi.</text>
<text text-anchor="middle" x="290.81" y="-480.85" font-family="Helvetica,sans-Serif" font-size="10.00" fill="#000000">middleware.</text>
<text text-anchor="middle" x="290.81" y="-469.85" font-family="Helvetica,sans-Serif" font-size="10.00" fill="#000000">cors</text>
</g>
<!-- fastapi_middleware_cors&#45;&gt;api_server_server -->
<g id="edge17" class="edge">
<title>fastapi_middleware_cors&#45;&gt;api_server_server</title><style>.edge>path:hover{stroke-width:8}</style>
<path fill="none" stroke="black" d="M293.44,-454.32C297.07,-417.97 304.4,-352.68 314.81,-297.5 316.43,-288.93 318.56,-279.72 320.67,-271.28"/>
<polygon fill="#85b653" stroke="black" points="324.09,-272.02 323.19,-261.46 317.31,-270.28 324.09,-272.02"/>
</g>
<!-- fastapi_responses -->
<g id="node17" class="node">
<title>fastapi_responses</title><style>.edge>path:hover{stroke-width:8}</style>
<ellipse fill="#85db2f" stroke="black" cx="478.81" cy="-483.35" rx="43.68" ry="21.43"/>
<text text-anchor="middle" x="478.81" y="-486.35" font-family="Helvetica,sans-Serif" font-size="10.00" fill="#000000">fastapi.</text>
<text text-anchor="middle" x="478.81" y="-475.35" font-family="Helvetica,sans-Serif" font-size="10.00" fill="#000000">responses</text>
</g>
<!-- fastapi_responses&#45;&gt;api_server_core_exception_handler -->
<g id="edge18" class="edge">
<title>fastapi_responses&#45;&gt;api_server_core_exception_handler</title><style>.edge>path:hover{stroke-width:8}</style>
<path fill="none" stroke="black" d="M439.78,-473.4C409.99,-464.5 370.35,-447.8 347.81,-418.36 320.67,-382.91 338.46,-363.31 328.81,-319.72"/>
<path fill="none" stroke="black" d="M328.81,-317.72C318.78,-284.56 291.76,-291.72 274.81,-261.5 261.68,-238.09 254.13,-208.75 249.89,-185.68"/>
<polygon fill="#85db2f" stroke="black" points="253.3,-184.83 248.17,-175.56 246.4,-186 253.3,-184.83"/>
</g>
<!-- fastapi_responses&#45;&gt;api_server_routers_auth_router -->
<g id="edge19" class="edge">
<title>fastapi_responses&#45;&gt;api_server_routers_auth_router</title><style>.edge>path:hover{stroke-width:8}</style>
<path fill="none" stroke="black" d="M475.3,-461.92C471.58,-440.48 465.48,-405.8 459.81,-375.93 447.03,-308.59 431.03,-230.32 421.66,-185.03"/>
<polygon fill="#85db2f" stroke="black" points="425.06,-184.15 419.6,-175.07 418.2,-185.57 425.06,-184.15"/>
</g>
<!-- fastapi_responses&#45;&gt;api_server_server -->
<g id="edge20" class="edge">
<title>fastapi_responses&#45;&gt;api_server_server</title><style>.edge>path:hover{stroke-width:8}</style>
<path fill="none" stroke="black" d="M328.81,-317.72C325.52,-302.85 325.18,-285.96 325.81,-271.84"/>
<polygon fill="#85db2f" stroke="black" points="329.31,-271.86 326.44,-261.66 322.33,-271.43 329.31,-271.86"/>
</g>
<!-- fastapi_responses&#45;&gt;fastapi -->
<g id="edge21" class="edge">
<title>fastapi_responses&#45;&gt;fastapi</title><style>.edge>path:hover{stroke-width:8}</style>
<path fill="none" stroke="black" d="M505.66,-466.31C530.29,-451.61 566.62,-429.91 591.65,-414.96"/>
<polygon fill="#85db2f" stroke="black" points="593.52,-417.92 600.31,-409.79 589.93,-411.91 593.52,-417.92"/>
</g>
<!-- fastapi_security -->
<g id="node18" class="node">
<title>fastapi_security</title><style>.edge>path:hover{stroke-width:8}</style>
<ellipse fill="#85b653" stroke="black" cx="149.81" cy="-397.14" rx="36.12" ry="21.43"/>
<text text-anchor="middle" x="149.81" y="-400.14" font-family="Helvetica,sans-Serif" font-size="10.00" fill="#000000">fastapi.</text>
<text text-anchor="middle" x="149.81" y="-389.14" font-family="Helvetica,sans-Serif" font-size="10.00" fill="#000000">security</text>
</g>
<!-- fastapi_security&#45;&gt;api_server_features_auth_decoder -->
<g id="edge22" class="edge">
<title>fastapi_security&#45;&gt;api_server_features_auth_decoder</title><style>.edge>path:hover{stroke-width:8}</style>
<path fill="none" stroke="black" d="M145.7,-375.82C136.86,-326.59 120.5,-198.5 168.81,-109.54 179.65,-89.58 198.7,-73.6 216.98,-61.82"/>
<polygon fill="#85b653" stroke="black" points="219.16,-64.59 225.86,-56.38 215.5,-58.62 219.16,-64.59"/>
</g>
<!-- fastapi_testclient -->
<g id="node19" class="node">
<title>fastapi_testclient</title><style>.edge>path:hover{stroke-width:8}</style>
<ellipse fill="#85b653" stroke="black" cx="1028.81" cy="-318.72" rx="39.7" ry="21.43"/>
<text text-anchor="middle" x="1028.81" y="-321.72" font-family="Helvetica,sans-Serif" font-size="10.00" fill="#000000">fastapi.</text>
<text text-anchor="middle" x="1028.81" y="-310.72" font-family="Helvetica,sans-Serif" font-size="10.00" fill="#000000">testclient</text>
</g>
<!-- fastapi_testclient&#45;&gt;api_server_tests_conftest -->
<g id="edge23" class="edge">
<title>fastapi_testclient&#45;&gt;api_server_tests_conftest</title><style>.edge>path:hover{stroke-width:8}</style>
<path fill="none" stroke="black" d="M1034.19,-297.56C1043.91,-256.16 1059.07,-161.1 1009.81,-109.54 946.72,-43.5 664.47,-36.82 543.33,-37.07"/>
<polygon fill="#85b653" stroke="black" points="543.14,-33.57 533.16,-37.11 543.17,-40.57 543.14,-33.57"/>
</g>
<!-- httpx -->
<g id="node20" class="node">
<title>httpx</title><style>.edge>path:hover{stroke-width:8}</style>
<ellipse fill="#53b6b6" stroke="black" cx="60.81" cy="-483.35" rx="27" ry="18"/>
<text text-anchor="middle" x="60.81" y="-480.85" font-family="Helvetica,sans-Serif" font-size="10.00" fill="#000000">httpx</text>
</g>
<!-- httpx&#45;&gt;api_server_communication_wrappers_http -->
<g id="edge24" class="edge">
<title>httpx&#45;&gt;api_server_communication_wrappers_http</title><style>.edge>path:hover{stroke-width:8}</style>
<path fill="none" stroke="black" d="M60.81,-465.27C60.81,-415.41 60.81,-268.8 60.81,-193.34"/>
<polygon fill="#53b6b6" stroke="black" points="64.31,-193.18 60.81,-183.18 57.31,-193.18 64.31,-193.18"/>
</g>
<!-- sse_starlette -->
<g id="node21" class="node">
<title>sse_starlette</title><style>.edge>path:hover{stroke-width:8}</style>
<ellipse fill="#7a3db8" stroke="black" cx="1271.81" cy="-397.14" rx="42.94" ry="18"/>
<text text-anchor="middle" x="1271.81" y="-394.64" font-family="Helvetica,sans-Serif" font-size="10.00" fill="#ffffff">sse_starlette</text>
</g>
<!-- sse_starlette&#45;&gt;api_server_routers_product_router -->
<g id="edge25" class="edge">
<title>sse_starlette&#45;&gt;api_server_routers_product_router</title><style>.edge>path:hover{stroke-width:8}</style>
<path fill="none" stroke="black" d="M1269.76,-378.93C1268.38,-363.29 1267.5,-339.69 1271.81,-319.72"/>
</g>
<!-- sse_starlette_sse -->
<g id="node22" class="node">
<title>sse_starlette_sse</title><style>.edge>path:hover{stroke-width:8}</style>
<ellipse fill="#8547c2" stroke="black" cx="1235.81" cy="-483.35" rx="53.98" ry="21.43"/>
<text text-anchor="middle" x="1235.81" y="-486.35" font-family="Helvetica,sans-Serif" font-size="10.00" fill="#ffffff">sse_starlette.</text>
<text text-anchor="middle" x="1235.81" y="-475.35" font-family="Helvetica,sans-Serif" font-size="10.00" fill="#ffffff">sse</text>
</g>
<!-- sse_starlette_sse&#45;&gt;api_server_routers_product_router -->
<g id="edge26" class="edge">
<title>sse_starlette_sse&#45;&gt;api_server_routers_product_router</title><style>.edge>path:hover{stroke-width:8}</style>
<path fill="none" stroke="black" d="M1226.77,-462.05C1218.35,-440.11 1208.64,-404.46 1219.81,-375.93 1232.22,-344.24 1264.63,-352.99 1271.81,-319.72"/>
<path fill="none" stroke="black" d="M1271.81,-317.72C1279.57,-271.32 1263.96,-218.56 1250.46,-184.19"/>
<polygon fill="#8547c2" stroke="black" points="1253.56,-182.52 1246.55,-174.58 1247.08,-185.16 1253.56,-182.52"/>
</g>
<!-- sse_starlette_sse&#45;&gt;sse_starlette -->
<g id="edge27" class="edge">
<title>sse_starlette_sse&#45;&gt;sse_starlette</title><style>.edge>path:hover{stroke-width:8}</style>
<path fill="none" stroke="black" d="M1244.34,-462.39C1249.2,-451.03 1255.34,-436.67 1260.58,-424.4"/>
<polygon fill="#8547c2" stroke="black" points="1263.84,-425.69 1264.56,-415.11 1257.41,-422.93 1263.84,-425.69"/>
</g>
</g>
</svg>
